/* XPM */
static char * EA_xpm[] = {
"64 64 78 1",
" 	c #FFDA00",
".	c #FFFAEF",
"+	c #FFFFFF",
"@	c #FFFBF3",
"#	c #FFDD49",
"$	c #FFFEFC",
"%	c #FFFCF5",
"&	c #FFDB22",
"*	c #FFEBAF",
"=	c #FFE697",
"-	c #FFF9E9",
";	c #FFF5DA",
">	c #FFE694",
",	c #FFE27C",
"'	c #FFF6DE",
")	c #FFFAEE",
"!	c #FFFFFE",
"~	c #FFDE58",
"{	c #FFF1CA",
"]	c #FFE79D",
"^	c #FFECB5",
"/	c #FFECB6",
"(	c #FFDB35",
"_	c #FFFDF8",
":	c #FFFCF6",
"<	c #FFDB2A",
"[	c #FFDE55",
"}	c #FFFEFD",
"|	c #FFE8A2",
"1	c #FFF0C5",
"2	c #FFF4D8",
"3	c #FFE487",
"4	c #FFF7E1",
"5	c #FFE173",
"6	c #FFF2D0",
"7	c #FFE069",
"8	c #FFF8E6",
"9	c #FFDA1C",
"0	c #FFFEFB",
"a	c #FFDC42",
"b	c #FFEAAB",
"c	c #FFEEC0",
"d	c #FFEAAA",
"e	c #FFEEBE",
"f	c #FFFCF3",
"g	c #FFDC40",
"h	c #FFDF66",
"i	c #FFF2CF",
"j	c #FFF6DF",
"k	c #FFE175",
"l	c #FFE385",
"m	c #FFE8A0",
"n	c #FFF0C6",
"o	c #FFFAED",
"p	c #FFDB2E",
"q	c #FFFDF7",
"r	c #FFECB4",
"s	c #FFF6DD",
"t	c #FFDF60",
"u	c #FFF1CD",
"v	c #FFEDBB",
"w	c #FFFEFA",
"x	c #FFE172",
"y	c #FFE489",
"z	c #FFFBF1",
"A	c #FFDA16",
"B	c #FFEAA9",
"C	c #FFDA0D",
"D	c #FFFBF2",
"E	c #FFE58E",
"F	c #FFF8E5",
"G	c #FFEFC3",
"H	c #FFF3D4",
"I	c #FFDF5F",
"J	c #FFE278",
"K	c #FFDD4B",
"L	c #FFF7E2",
"M	c #FFF9EC",
"                                                                ",
"                                                                ",
"                                                                ",
"                                                                ",
"                                                                ",
"                                                                ",
"                                                                ",
"                                                                ",
"                                                                ",
"                                                                ",
"                                                                ",
"                                                                ",
"                                                                ",
"                                                                ",
"                                                                ",
"                                                                ",
"                                                                ",
"                                                                ",
"                                                                ",
"                                                                ",
"                .+++++++++++++@          #$++%&                 ",
"                .+++++++++++++@          *++++=                 ",
"                .+++++++++++++@          -++++;                 ",
"                .++>                    ,++')+!~                ",
"                .++>                    {++]^++/                ",
"                .++>                   (_+:<[}+)                ",
"                .++>                   |++1  2++3               ",
"                .++>                   4++5  >++6               ",
"                .++>                  7++8   9@+0a              ",
"                .+++++++++++++b       c++d    e++d              ",
"                .+++++++++++++b      9f+0g    h++8              ",
"                .+++++++++++++b      >++i      j++k             ",
"                .++>                 2++l      m++n             ",
"                .++>                [}+o       pq+:<            ",
"                .++>                r++++++++++++++]            ",
"                .++>                o++++++++++++++s            ",
"                .++>               l+++++++++++++++!t           ",
"                .++>               i++c          u++v           ",
"                .++>              gw++x          y++zA          ",
"                .++>              B++-           CD++E          ",
"                .++++++++++++++5  F++^            G++H          ",
"                .++++++++++++++5 x+++I            J++$K         ",
"                .++++++++++++++5 1++L              M++*         ",
"                                                                ",
"                                                                ",
"                                                                ",
"                                                                ",
"                                                                ",
"                                                                ",
"                                                                ",
"                                                                ",
"                                                                ",
"                                                                ",
"                                                                ",
"                                                                ",
"                                                                ",
"                                                                ",
"                                                                ",
"                                                                ",
"                                                                ",
"                                                                ",
"                                                                ",
"                                                                ",
"                                                                "};
