/* XPM */
static char * NO_xpm[] = {
"64 64 110 2",
"  	c #2600FF",
". 	c #EFEFFF",
"+ 	c #FFFFFF",
"@ 	c #D5D4FF",
"# 	c #908DFF",
"$ 	c #E8E7FF",
"% 	c #311CFF",
"& 	c #9895FF",
"* 	c #CBCAFF",
"= 	c #EAE9FF",
"- 	c #F4F4FF",
"; 	c #FCFCFF",
"> 	c #F7F6FF",
", 	c #EDEDFF",
"' 	c #D3D2FF",
") 	c #A5A3FF",
"! 	c #483DFF",
"~ 	c #807CFF",
"{ 	c #9B98FF",
"] 	c #F6F6FF",
"^ 	c #B1AFFF",
"/ 	c #2E16FF",
"( 	c #DFDEFF",
"_ 	c #2A0DFF",
": 	c #C2C0FF",
"< 	c #D8D7FF",
"[ 	c #4438FF",
"} 	c #FEFEFF",
"| 	c #918EFF",
"1 	c #C5C4FF",
"2 	c #FDFDFF",
"3 	c #CFCEFF",
"4 	c #9592FF",
"5 	c #5F58FF",
"6 	c #3A2AFF",
"7 	c #574FFF",
"8 	c #8783FF",
"9 	c #F9F9FF",
"0 	c #DEDDFF",
"a 	c #CECDFF",
"b 	c #E8E8FF",
"c 	c #9996FF",
"d 	c #F0EFFF",
"e 	c #7772FF",
"f 	c #5951FF",
"g 	c #E2E1FF",
"h 	c #BCBAFF",
"i 	c #8581FF",
"j 	c #EEEEFF",
"k 	c #A29FFF",
"l 	c #EFEEFF",
"m 	c #5E56FF",
"n 	c #3F32FF",
"o 	c #E6E5FF",
"p 	c #FCFBFF",
"q 	c #5B53FF",
"r 	c #817DFF",
"s 	c #9E9BFF",
"t 	c #3726FF",
"u 	c #9F9CFF",
"v 	c #6F69FF",
"w 	c #C0BEFF",
"x 	c #E6E6FF",
"y 	c #B0AEFF",
"z 	c #D4D3FF",
"A 	c #ECECFF",
"B 	c #8D89FF",
"C 	c #F5F5FF",
"D 	c #F3F3FF",
"E 	c #BFBDFF",
"F 	c #9D9BFF",
"G 	c #DDDCFF",
"H 	c #BDBBFF",
"I 	c #4C42FF",
"J 	c #9693FF",
"K 	c #625CFF",
"L 	c #8A86FF",
"M 	c #7C77FF",
"N 	c #6B65FF",
"O 	c #7D78FF",
"P 	c #C9C8FF",
"Q 	c #FAFAFF",
"R 	c #A7A4FF",
"S 	c #6963FF",
"T 	c #6C66FF",
"U 	c #C7C6FF",
"V 	c #7E79FF",
"W 	c #EBEBFF",
"X 	c #463BFF",
"Y 	c #908CFF",
"Z 	c #A09DFF",
"` 	c #AFADFF",
" .	c #E7E7FF",
"..	c #3D2EFF",
"+.	c #3422FF",
"@.	c #CDCCFF",
"#.	c #9C99FF",
"$.	c #7671FF",
"%.	c #E1E0FF",
"&.	c #C7C5FF",
"*.	c #9390FF",
"=.	c #564DFF",
"-.	c #C1C0FF",
";.	c #D9D8FF",
">.	c #8F8BFF",
",.	c #9A97FF",
"'.	c #CCCBFF",
").	c #EBEAFF",
"!.	c #F7F7FF",
"~.	c #A6A3FF",
"                                                                                                                                ",
"                                                                                                                                ",
"                                                                                                                                ",
"                                                                                                                                ",
"                                                                                                                                ",
"                                                                                                                                ",
"                                                                                                                                ",
"                                                                                                                                ",
"                                                                                                                                ",
"                                                                                                                                ",
"                                                                                                                                ",
"                                                                                                                                ",
"                                                                                                                                ",
"                                                                                                                                ",
"                                                                                                                                ",
"                                                                                                                                ",
"                                                                                                                                ",
"                                                                                                                                ",
"                                                                                                                                ",
"                                                                                                                                ",
"                      . + + + @                   # + + $                     % & * = - ; > , ' ) !                             ",
"                      . + + + + ~                 # + + $                   { , + + + + + + + + + ] ^ /                         ",
"                      . + + + + (                 # + + $               _ : + + + + + + + + + + + + + < [                       ",
"                      . + + } + + |               # + + $               1 + + + 2 3 4 5 6 7 8 : 9 + + + 0 /                     ",
"                      . + + a + + b _             # + + $             c + + + d e               f g + + + h                     ",
"                      . + + i j + + k             # + + $           / l + + - m                   n o + + p q                   ",
"                      . + + r s + + . t           # + + $           u + + + c                       v 2 + + w                   ",
"                      . + + r   x + + y           # + + $           z + + A                           z + + A                   ",
"                      . + + r   B + + C !         # + + $           D + + E                           F + + + f                 ",
"                      . + + r     G + + H         # + + $         I + + + J                           K + + + L                 ",
"                      . + + r     M + + 9 q       # + + $         N + + + O                           % + + + {                 ",
"                      . + + r       ' + + P       # + + $         M + + + v                             Q + + R                 ",
"                      . + + r       S ; + 2 T     # + + $         N + + + O                           % + + + {                 ",
"                      . + + r         U + + z     # + + $         I + + + J                           K + + + L                 ",
"                      . + + r         7 9 + + V   # + + $           D + + E                           F + + + f                 ",
"                      . + + r           h + + 0   # + + $           z + + W                           z + + A                   ",
"                      . + + r           X - + + Y # + + $           Z + + + c                       v 2 + + w                   ",
"                      . + + r             ` + +  .| + + $           % d + + - m                   ..o + + p q                   ",
"                      . + + r             +.j + + @.+ + $             #.+ + + . $.              f %.+ + + h                     ",
"                      . + + r               Z + + } + + $               &.+ + + 2 a *.m t =.i -.9 + + + 0 /                     ",
"                      . + + r               _  .+ + + + $               / 1 + + + + + + + + + + + + + ;.[                       ",
"                      . + + r                 >.+ + + + $                   F j + + + + + + + + + ] ^ /                         ",
"                      . + + r                   0 + + + $                     +.,.'.).C 2 !., z ~.!                             ",
"                                                                                                                                ",
"                                                                                                                                ",
"                                                                                                                                ",
"                                                                                                                                ",
"                                                                                                                                ",
"                                                                                                                                ",
"                                                                                                                                ",
"                                                                                                                                ",
"                                                                                                                                ",
"                                                                                                                                ",
"                                                                                                                                ",
"                                                                                                                                ",
"                                                                                                                                ",
"                                                                                                                                ",
"                                                                                                                                ",
"                                                                                                                                ",
"                                                                                                                                ",
"                                                                                                                                ",
"                                                                                                                                ",
"                                                                                                                                ",
"                                                                                                                                "};
