/* XPM */
static char * SO_xpm[] = {
"64 64 124 2",
"  	c #FF0000",
". 	c #FF4747",
"+ 	c #FFADAD",
"@ 	c #FFD8D8",
"# 	c #FFF0F0",
"$ 	c #FFFAFA",
"% 	c #FFFDFD",
"& 	c #FFF5F5",
"* 	c #FFECEC",
"= 	c #FFE1E1",
"- 	c #FFC6C6",
"; 	c #FF9F9F",
"> 	c #FF6565",
", 	c #FF1C1C",
"' 	c #FF9595",
") 	c #FFCACA",
"! 	c #FFE9E9",
"~ 	c #FFF4F4",
"{ 	c #FFFCFC",
"] 	c #FFF6F6",
"^ 	c #FFEDED",
"/ 	c #FFD2D2",
"( 	c #FFA3A3",
"_ 	c #FF3D3D",
": 	c #FFA7A7",
"< 	c #FFF8F8",
"[ 	c #FFFFFF",
"} 	c #FF6363",
"| 	c #FF9898",
"1 	c #FFAFAF",
"2 	c #FF1616",
"3 	c #FFB6B6",
"4 	c #FF0D0D",
"5 	c #FFC0C0",
"6 	c #FFD7D7",
"7 	c #FF3838",
"8 	c #FF7777",
"9 	c #FFFEFE",
"0 	c #FFBEBE",
"a 	c #FF8080",
"b 	c #FF4949",
"c 	c #FF2222",
"d 	c #FF4B4B",
"e 	c #FF6C6C",
"f 	c #FF8585",
"g 	c #FFAEAE",
"h 	c #FFEFEF",
"i 	c #FF6262",
"j 	c #FFC4C4",
"k 	c #FFCECE",
"l 	c #FF9292",
"m 	c #FF5858",
"n 	c #FF2A2A",
"o 	c #FF4F4F",
"p 	c #FF8383",
"q 	c #FFF9F9",
"r 	c #FFDDDD",
"s 	c #FFC9C9",
"t 	c #FF9696",
"u 	c #FF7272",
"v 	c #FF5151",
"w 	c #FFBABA",
"x 	c #FFE7E7",
"y 	c #FFB2B2",
"z 	c #FFEEEE",
"A 	c #FF5656",
"B 	c #FF3232",
"C 	c #FFE5E5",
"D 	c #FFFBFB",
"E 	c #FF5353",
"F 	c #FF9A9A",
"G 	c #FF9C9C",
"H 	c #FF6969",
"I 	c #FFE8E8",
"J 	c #FFD3D3",
"K 	c #FFC7C7",
"L 	c #FF9797",
"M 	c #FFF3F3",
"N 	c #FFBDBD",
"O 	c #FF9B9B",
"P 	c #FF6868",
"Q 	c #FFC8C8",
"R 	c #FFA4A4",
"S 	c #FF4242",
"T 	c #FF9393",
"U 	c #FF5C5C",
"V 	c #FF8686",
"W 	c #FFDFDF",
"X 	c #FFB9B9",
"Y 	c #FF7878",
"Z 	c #FF6A6A",
"` 	c #FFD4D4",
" .	c #FFE6E6",
"..	c #FFF2F2",
"+.	c #FF7575",
"@.	c #FFE3E3",
"#.	c #FF7D7D",
"$.	c #FFF7F7",
"%.	c #FFB0B0",
"&.	c #FFEBEB",
"*.	c #FF9D9D",
"=.	c #FF2626",
"-.	c #FF2E2E",
";.	c #FFC3C3",
">.	c #FF8484",
",.	c #FF9999",
"'.	c #FF7171",
").	c #FFE0E0",
"!.	c #FFDEDE",
"~.	c #FFC2C2",
"{.	c #FF9E9E",
"].	c #FF7F7F",
"^.	c #FF4D4D",
"/.	c #FF3535",
"(.	c #FFC5C5",
"_.	c #FFCDCD",
":.	c #FF9090",
"<.	c #FF8181",
"[.	c #FF7C7C",
"}.	c #FF8A8A",
"|.	c #FFB3B3",
"1.	c #FFE2E2",
"2.	c #FFCBCB",
"3.	c #FFEAEA",
"                                                                                                                                ",
"                                                                                                                                ",
"                                                                                                                                ",
"                                                                                                                                ",
"                                                                                                                                ",
"                                                                                                                                ",
"                                                                                                                                ",
"                                                                                                                                ",
"                                                                                                                                ",
"                                                                                                                                ",
"                                                                                                                                ",
"                                                                                                                                ",
"                                                                                                                                ",
"                                                                                                                                ",
"                                                                                                                                ",
"                                                                                                                                ",
"                                                                                                                                ",
"                                                                                                                                ",
"                                                                                                                                ",
"                              . + @ # $ % & * = - ; >                     , ' ) ! ~ { ] ^ / ( _                                 ",
"                            : < [ [ [ [ [ [ [ [ [ [ [ }                 | ^ [ [ [ [ [ [ [ [ [ ] 1 2                             ",
"                          3 [ [ [ [ [ [ [ [ [ [ [ [ [ }             4 5 [ [ [ [ [ [ [ [ [ [ [ [ [ 6 7                           ",
"                        8 9 [ [ < 0 a b c d e f g / h i             j [ [ [ % k l m n o p 5 q [ [ [ r 2                         ",
"                        s [ [ ~ }                                 t [ [ [ h u               v = [ [ [ w                         ",
"                        x [ [ y                                 2 z [ [ ~ A                   B C [ [ D E                       ",
"                        # [ [ F                                 G [ [ [ t                       H % [ [ 0                       ",
"                        I [ [ 0                                 J [ [ *                           J [ [ *                       ",
"                        K [ [ { L                               M [ [ N                           O [ [ [ v                     ",
"                        P D [ [ [ h Q R u 2                   S [ [ [ T                           U [ [ [ V                     ",
"                          | D [ [ [ [ [ [ $ W X P             > [ [ [ Y                           , [ [ [ |                     ",
"                            Z / { [ [ [ [ [ [ [ [ ` E         8 [ [ [ H                             $ [ [ R                     ",
"                                . ; s  .D [ [ [ [ [ ..i       > [ [ [ Y                           , [ [ [ |                     ",
"                                        , +.y ^ [ [ [ @.      S [ [ [ T                           U [ [ [ V                     ",
"                                              c ) [ [ [ #.      M [ [ N                           O [ [ [ v                     ",
"                                                n $.[ [ %.      J [ [ &.                          J [ [ *                       ",
"                                                  x [ [ N       *.[ [ [ t                       H % [ [ 0                       ",
"                                                =.] [ [ %.      , h [ [ ~ A                   -.C [ [ D E                       ",
"                                                ;.[ [ [ >.        ,.[ [ [ h '.              v ).[ [ [ w                         ",
"                        !.W ~.{.].H ^., /.e ( @.[ [ [ &.4           (.[ [ [ % _.:.A =.^.<.5 q [ [ [ r 2                         ",
"                        x [ [ [ [ [ [ [ [ [ [ [ [ [ < [.            2 j [ [ [ [ [ [ [ [ [ [ [ [ [ @ 7                           ",
"                        x [ [ [ [ [ [ [ [ [ [ [ [ C +.                  O z [ [ [ [ [ [ [ [ [ ] 1 2                             ",
"                        . }.|./ C z $.9 D ~ 1.(.V 4                       c L 2.3.& % $.^ J ( _                                 ",
"                                                                                                                                ",
"                                                                                                                                ",
"                                                                                                                                ",
"                                                                                                                                ",
"                                                                                                                                ",
"                                                                                                                                ",
"                                                                                                                                ",
"                                                                                                                                ",
"                                                                                                                                ",
"                                                                                                                                ",
"                                                                                                                                ",
"                                                                                                                                ",
"                                                                                                                                ",
"                                                                                                                                ",
"                                                                                                                                ",
"                                                                                                                                ",
"                                                                                                                                ",
"                                                                                                                                ",
"                                                                                                                                ",
"                                                                                                                                ",
"                                                                                                                                ",
"                                                                                                                                "};
