/* XPM */
static char * WE_xpm[] = {
"64 64 123 2",
"  	c #53FF00",
". 	c #EBFFE9",
"+ 	c #FFFFFF",
"@ 	c #AFFFA4",
"# 	c #70FF51",
"$ 	c #E0FFDC",
"% 	c #E2FFDF",
"& 	c #BDFFB5",
"* 	c #F0FFEF",
"= 	c #F4FFF3",
"- 	c #CBFFC5",
"; 	c #D4FFD0",
"> 	c #A8FF9C",
", 	c #FAFFFA",
"' 	c #59FF22",
") 	c #5CFF2A",
"! 	c #FBFFFB",
"~ 	c #8FFF7E",
"{ 	c #A2FF95",
"] 	c #F3FFF1",
"^ 	c #CEFFC9",
"/ 	c #93FF82",
"( 	c #96FF86",
"_ 	c #F9FFF9",
": 	c #58FF1C",
"< 	c #69FF45",
"[ 	c #FEFFFE",
"} 	c #7DFF65",
"| 	c #EEFFEC",
"1 	c #E7FFE5",
"2 	c #BFFFB7",
"3 	c #C2FFBB",
"4 	c #DEFFDA",
"5 	c #A1FF94",
"6 	c #E9FFE7",
"7 	c #B1FFA7",
"8 	c #71FF53",
"9 	c #BFFFB8",
"0 	c #E1FFDE",
"a 	c #E3FFE0",
"b 	c #BBFFB2",
"c 	c #C9FFC2",
"d 	c #D6FFD1",
"e 	c #A9FF9E",
"f 	c #94FF83",
"g 	c #CAFFC4",
"h 	c #5BFF26",
"i 	c #5EFF2E",
"j 	c #FCFFFB",
"k 	c #8BFF78",
"l 	c #9FFF92",
"m 	c #F3FFF2",
"n 	c #D0FFCA",
"o 	c #94FF84",
"p 	c #98FF88",
"q 	c #F8FFF7",
"r 	c #56FF16",
"s 	c #65FF3D",
"t 	c #FDFFFD",
"u 	c #80FF69",
"v 	c #EEFFED",
"w 	c #6AFF47",
"x 	c #C1FFB9",
"y 	c #DBFFD7",
"z 	c #B2FFA8",
"A 	c #73FF56",
"B 	c #C0FFB9",
"C 	c #E4FFE1",
"D 	c #B8FFAF",
"E 	c #C6FFC0",
"F 	c #D7FFD2",
"G 	c #AAFF9F",
"H 	c #CCFFC6",
"I 	c #5FFF32",
"J 	c #87FF73",
"K 	c #B4FFAB",
"L 	c #9CFF8E",
"M 	c #D1FFCB",
"N 	c #A5FF99",
"O 	c #97FF87",
"P 	c #99FF8A",
"Q 	c #F6FFF5",
"R 	c #55FF0D",
"S 	c #62FF38",
"T 	c #FDFFFC",
"U 	c #82FF6C",
"V 	c #EFFFEE",
"W 	c #6EFF4D",
"X 	c #C3FFBD",
"Y 	c #D9FFD5",
"Z 	c #E5FFE3",
"` 	c #B4FFAA",
" .	c #74FF58",
"..	c #ECFFEB",
"+.	c #E4FFE2",
"@.	c #C4FFBD",
"#.	c #D8FFD4",
"$.	c #ABFFA0",
"%.	c #95FF85",
"&.	c #CDFFC8",
"*.	c #FCFFFC",
"=.	c #83FF6D",
"-.	c #F5FFF4",
";.	c #D1FFCC",
">.	c #A7FF9B",
",.	c #98FF89",
"'.	c #9AFF8B",
").	c #85FF70",
"!.	c #F0FFEE",
"~.	c #C5FFBE",
"{.	c #D6FFD2",
"].	c #B5FFAC",
"^.	c #76FF5A",
"/.	c #C1FFBA",
"(.	c #ACFFA1",
"_.	c #7EFF66",
":.	c #F6FFF6",
"<.	c #D2FFCD",
"[.	c #C7FFC0",
"}.	c #D4FFCF",
"|.	c #AEFFA3",
"1.	c #79FF5F",
"2.	c #ADFFA2",
"                                                                                                                                ",
"                                                                                                                                ",
"                                                                                                                                ",
"                                                                                                                                ",
"                                                                                                                                ",
"                                                                                                                                ",
"                                                                                                                                ",
"                                                                                                                                ",
"                                                                                                                                ",
"                                                                                                                                ",
"                                                                                                                                ",
"                                                                                                                                ",
"                                                                                                                                ",
"                                                                                                                                ",
"                                                                                                                                ",
"                                                                                                                                ",
"                                                                                                                                ",
"                                                                                                                                ",
"                                                                                                                                ",
"                                                                                                                                ",
"                . + + @                 # + + + $                   % + + &         * + + + + + + + + + + + + + =               ",
"                - + + ;                 > + + + , '               ) ! + + ~         * + + + + + + + + + + + + + =               ",
"                { + + ]                 ^ + + + + /               ( + + _ :         * + + + + + + + + + + + + + =               ",
"                < [ + + }               | + 1 [ + 2               3 + + 4           * + + 5                                     ",
"                  6 + + 7             8 + + 9 6 + 0               a + + b           * + + 5                                     ",
"                  c + + d             e + + f g + ! h           i j + + k           * + + 5                                     ",
"                  l + + m             n + ! h { + + o           p + + q r           * + + 5                                     ",
"                  s t + + u           v + 0   w [ + x           3 + + y             * + + 5                                     ",
"                    1 + + z         A + + B     . + %           C + + D             * + + 5                                     ",
"                    E + + F         G + + o     H + ! )       I j + + J             * + + + + + + + + + + + + + K               ",
"                    L + + =         M + ! )     N + + O       P + + Q R             * + + + + + + + + + + + + + K               ",
"                    S T + + U       V + %       W + + 3       X + + Y               * + + + + + + + + + + + + + K               ",
"                      Z + + `      .+ + x         ..+ a       +.+ + K               * + + 5                                     ",
"                      @.+ + #.    $.+ + %.        &.+ *.I   I *.+ + =.              * + + 5                                     ",
"                      P + + -.    ;.+ ! )         >.+ + ,.  '.+ + =                 * + + 5                                     ",
"                      I *.+ + ).  !.+ %           8 + + X   ~.+ + {.                * + + 5                                     ",
"                        a + + ].^.+ + /.            | + +.  Z + + 7                 * + + 5                                     ",
"                        3 + + Y (.+ + O             n + T W T + + _.                * + + 5                                     ",
"                        ( + + :.<.+ j i             G + + [.+ + ]                   * + + 5                                     ",
"                        ) ! + + , + a                .+ + , + + }.                  * + + 5                                     ",
"                          0 + + + + 3                 !.+ + + + |.                  * + + + + + + + + + + + + + + J             ",
"                          9 + + + + p                 <.+ + + + 1.                  * + + + + + + + + + + + + + + J             ",
"                          / + + + *.i                 2.+ + + *                     * + + + + + + + + + + + + + + J             ",
"                                                                                                                                ",
"                                                                                                                                ",
"                                                                                                                                ",
"                                                                                                                                ",
"                                                                                                                                ",
"                                                                                                                                ",
"                                                                                                                                ",
"                                                                                                                                ",
"                                                                                                                                ",
"                                                                                                                                ",
"                                                                                                                                ",
"                                                                                                                                ",
"                                                                                                                                ",
"                                                                                                                                ",
"                                                                                                                                ",
"                                                                                                                                ",
"                                                                                                                                ",
"                                                                                                                                ",
"                                                                                                                                ",
"                                                                                                                                ",
"                                                                                                                                "};
