/* XPM */
static char * EA_xpm[] = {
"114 64 140 2",
"  	c #ED1B24",
". 	c #EC1B24",
"+ 	c #EF8E8E",
"@ 	c #F1B7B9",
"# 	c #F1B8B9",
"$ 	c #F0B8B9",
"% 	c #EC797A",
"& 	c #F6BCBE",
"* 	c #E61B25",
"= 	c #EB1822",
"- 	c #EA1822",
"; 	c #EB6165",
"> 	c #EFA5A7",
", 	c #E91D26",
"' 	c #ED6265",
") 	c #F0A5A7",
"! 	c #EC1C25",
"~ 	c #F1BFC3",
"{ 	c #F2D2D2",
"] 	c #F1D2D3",
"^ 	c #F0C6C3",
"/ 	c #ED1B25",
"( 	c #ED7980",
"_ 	c #F9E1E2",
": 	c #F6D5D1",
"< 	c #EB2328",
"[ 	c #EA1C26",
"} 	c #FBF4F7",
"| 	c #FCF4F3",
"1 	c #F4D8D9",
"2 	c #F4D8D8",
"3 	c #F2CCC9",
"4 	c #EC1C23",
"5 	c #F4C9CE",
"6 	c #FEFEFC",
"7 	c #FEFFFE",
"8 	c #ED8A82",
"9 	c #F9DBD6",
"0 	c #EB3742",
"a 	c #FCF5F8",
"b 	c #F1C5C3",
"c 	c #FDFAFB",
"d 	c #F4CCC8",
"e 	c #FBF4F8",
"f 	c #FADBD6",
"g 	c #EE979F",
"h 	c #FEFEFD",
"i 	c #ED736E",
"j 	c #F5D6DA",
"k 	c #FCF7F3",
"l 	c #EB3837",
"m 	c #F4D5D9",
"n 	c #FAE9E4",
"o 	c #EB1D24",
"p 	c #EE9BA2",
"q 	c #EF9B95",
"r 	c #FAEAE6",
"s 	c #F0A8A9",
"t 	c #F0A8A8",
"u 	c #EC4A49",
"v 	c #EA4C57",
"w 	c #FEFAFC",
"x 	c #F2B9B4",
"y 	c #EB3B47",
"z 	c #FDF8F9",
"A 	c #F7D7D4",
"B 	c #ED1C24",
"C 	c #FEFDFC",
"D 	c #FDF9F9",
"E 	c #FDF8F8",
"F 	c #EC746E",
"G 	c #F1A8AF",
"H 	c #EC6962",
"I 	c #F5D0D4",
"J 	c #FEFCF9",
"K 	c #EB504C",
"L 	c #ED1C25",
"M 	c #F7E0E4",
"N 	c #F9E6E2",
"O 	c #EC1C24",
"P 	c #EE9299",
"Q 	c #FEFEFE",
"R 	c #F1ABA6",
"S 	c #EB636D",
"T 	c #FFFEFE",
"U 	c #FBF5F4",
"V 	c #F8E6E6",
"W 	c #F8E6E7",
"X 	c #F7E7E8",
"Y 	c #F8E2DE",
"Z 	c #F2B6BC",
"` 	c #F3C1C0",
" .	c #F4BCBD",
"..	c #F3BCBD",
"+.	c #F3BCBC",
"@.	c #F8E2E4",
"#.	c #EC6762",
"$.	c #EB1D28",
"%.	c #F9EAEE",
"&.	c #F9E7E2",
"*.	c #EE8D95",
"=.	c #F3B9B4",
"-.	c #EA1C25",
";.	c #FBF3F8",
">.	c #FAF1EF",
",.	c #F1C9C9",
"'.	c #F1C9CA",
").	c #F0C9C9",
"!.	c #F1C4C2",
"~.	c #EA1D23",
"{.	c #ED7B85",
"].	c #F2B6B0",
"^.	c #EA2834",
"/.	c #FBF3F5",
"(.	c #FAECE8",
"_.	c #EB1E24",
":.	c #F3CDD1",
"<.	c #F6E2E2",
"[.	c #F7E2E3",
"}.	c #F7DCDB",
"|.	c #EA1F24",
"1.	c #EFA7AB",
"2.	c #F7E9E8",
"3.	c #EC6460",
"4.	c #F1B6BB",
"5.	c #F6EAE9",
"6.	c #ED5F5A",
"7.	c #EC1B25",
"8.	c #E91D27",
"9.	c #F6BDBF",
"0.	c #E88182",
"a.	c #EC8183",
"b.	c #EB8182",
"c.	c #EC9697",
"d.	c #F0A5A6",
"e.	c #EB6061",
"f.	c #E97E80",
"g.	c #E97D80",
"h.	c #E97D7F",
"i.	c #EB5255",
"                                                                                                                                                                                                                                    ",
"                                                                                                                                                                                                                                    ",
"                                                                                                                                                                                                                                    ",
"                                                                                                                                                                                                                                    ",
"                                                                                                                                                                                                                                    ",
"                                                                                                                                                                                                                                    ",
"                                                                                                                                                                                                                                    ",
"                                                                                                                                                                                                                                    ",
"                                                                                                                                                                                                                                    ",
"                                                                                                                                                                                                                                    ",
"                                                                                                                                                                                                                                    ",
"                                                                                                                                                                                                                                    ",
"                                                                                                                                                                                                                                    ",
"                                                                                                                                                                                                                                    ",
"                                                                                                                                                                                                                                    ",
"                                                                                                                                                                                                                                    ",
"                                                            . + @ # @ @ @ @ @ @ @ @ @ @ @ @ @ @ @ @ @ @ @ @ @ @ @ @ @ @ @ @ @ @ @ @ # $ %                                                                                           ",
"                                                              & * = = = = - - - - - - - - - - - = = = = = = = = - - - - - - - - - - - ; >                                                                                           ",
"                                                              & ,                                                                     ' )                                                                                           ",
"                                                              & ,                                                                     ' )                                                                                           ",
"                                                              & ,                                                                     ' )                                                                                           ",
"                                                              & ,                                                                     ' )                                                                                           ",
"                                                              & ,                                                                     ' )                                                                                           ",
"                                                              & ,                                                                     ' )                                                                                           ",
"                                                              & ,                                                                     ' )                                                                                           ",
"                                                              & ,                                                                     ' )                                                                                           ",
"                                                              & ,                                                                     ' )                                                                                           ",
"                                                              & ,                                                                     ' )                                                                                           ",
"                                                              & ,                                                                     ' )                                                                                           ",
"                                                              & ,                                                                     ' )                                                                                           ",
"                                                              & ,           ! ~ { { { { ] ^ .       / ( _ : <                         ' )                                                                                           ",
"                                                              & ,           [ } | 1 1 1 2 3 4         5 6 7 8 /                       ' )                                                                                           ",
"                                                              & ,           [ } 9                   0 a b c d                         ' )                                                                                           ",
"                                                              & ,           [ e f                 / g h i j k l                       ' )                                                                                           ",
"                                                              & ,           [ } f                   m n o p h q                       ' )                                                                                           ",
"                                                              & ,           [ } r s s s t u       v w x / y z A B                     ' )                                                                                           ",
"                                                              & ,           [ } C D D D E F       G 6 H     I J K                     ' )                                                                                           ",
"                                                              & ,           [ e 9 .       .     L M N O     P Q R                     ' )                                                                                           ",
"                                                              & ,           [ e f               S T U V V W X Q Y O                   ' )                                                                                           ",
"                                                              & ,           [ e f               Z T `  . ...+.@.6 #.                  ' )                                                                                           ",
"                                                              & ,           [ e f             $.%.&.O       / *.T =./                 ' )                                                                                           ",
"                                                              & ,           -.;.>.,.'.'.).!.~.{.T ].          ^./.(._.                ' )                                                                                           ",
"                                                              & ,           ! :.<.[.[.[.[.}.|.1.2.3.          O 4.5.6.                ' )                                                                                           ",
"                                                              & ,           !             L O   7.            .     .                 ' )                                                                                           ",
"                                                              & ,                                                                     ' )                                                                                           ",
"                                                              & ,                                                                     ' )                                                                                           ",
"                                                              & ,                                                                     ' )                                                                                           ",
"                                                              & ,                                                                     ' )                                                                                           ",
"                                                              & ,                                                                     ' )                                                                                           ",
"                                                              & ,                                                                     ' )                                                                                           ",
"                                                              & 8.      . . . . . . . . . . . . .             . . . . . . . . . . .   ' )                                                                                           ",
"                                                              9.0.a.a.a.a.a.a.a.a.a.a.a.a.a.a.a.a.a.a.a.a.a.a.a.a.a.a.a.a.a.a.a.a.a.b.c.d.                                                                                          ",
"                                                              e.f.g.g.g.g.g.g.g.g.g.g.g.g.g.g.g.g.g.g.g.g.g.g.g.g.g.g.g.g.g.g.g.g.g.g.h.i.                                                                                          ",
"                                                                                                                                                                                                                                    ",
"                                                                                                                                                                                                                                    ",
"                                                                                                                                                                                                                                    ",
"                                                                                                                                                                                                                                    ",
"                                                                                                                                                                                                                                    ",
"                                                                                                                                                                                                                                    ",
"                                                                                                                                                                                                                                    ",
"                                                                                                                                                                                                                                    ",
"                                                                                                                                                                                                                                    ",
"                                                                                                                                                                                                                                    ",
"                                                                                                                                                                                                                                    "};
