/* XPM */
static char * WE_xpm[] = {
"114 64 165 2",
"  	c #FEF200",
". 	c #FEF201",
"+ 	c #FDF119",
"@ 	c #FCF134",
"# 	c #FCF133",
"$ 	c #FCF130",
"% 	c #FDF690",
"& 	c #FDF7AC",
"* 	c #FDF69F",
"= 	c #FDFAC6",
"- 	c #FEF203",
"; 	c #FEF691",
"> 	c #FDF45B",
", 	c #FDF201",
"' 	c #FDF9A8",
") 	c #FCF116",
"! 	c #FDF205",
"~ 	c #FDF10F",
"{ 	c #FDF10B",
"] 	c #FDF104",
"^ 	c #FCF113",
"/ 	c #FDF469",
"( 	c #FEFFF4",
"_ 	c #FDF8AE",
": 	c #FDF23C",
"< 	c #FEFEEF",
"[ 	c #FEFDDD",
"} 	c #FEF107",
"| 	c #FDF8B4",
"1 	c #FFFFF2",
"2 	c #FDF239",
"3 	c #FDF7A7",
"4 	c #FEFDEE",
"5 	c #FEFDEF",
"6 	c #FDF575",
"7 	c #FDF118",
"8 	c #FEFEF3",
"9 	c #FEFCDD",
"0 	c #FDF58A",
"a 	c #FFFFFF",
"b 	c #FFFFFD",
"c 	c #FDF356",
"d 	c #FEF202",
"e 	c #FEFCE2",
"f 	c #FEFCE4",
"g 	c #FEF8C1",
"h 	c #FEFFFC",
"i 	c #FDF7B7",
"j 	c #FDF7B1",
"k 	c #FDF7B0",
"l 	c #FDF34C",
"m 	c #FDFACE",
"n 	c #FEFEF9",
"o 	c #FDF23D",
"p 	c #FDF9BE",
"q 	c #FEFEFA",
"r 	c #FFFFFE",
"s 	c #FDF79F",
"t 	c #FDF248",
"u 	c #FFFFFB",
"v 	c #FDF9BA",
"w 	c #FEF9C1",
"x 	c #FDF33C",
"y 	c #FDF69C",
"z 	c #FEFFFE",
"A 	c #FDF58D",
"B 	c #FEFCE3",
"C 	c #FCFAC9",
"D 	c #FEFDF0",
"E 	c #FEFACF",
"F 	c #FDF694",
"G 	c #FDF580",
"H 	c #FDF33D",
"I 	c #FDF34B",
"J 	c #FEFEFB",
"K 	c #FDFAC1",
"L 	c #FDF242",
"M 	c #FEFFFA",
"N 	c #FDF698",
"O 	c #FEFACE",
"P 	c #FEFEF2",
"Q 	c #FDF9C5",
"R 	c #FDF220",
"S 	c #FDF33E",
"T 	c #FEFCE1",
"U 	c #FEFDE7",
"V 	c #FEF104",
"W 	c #FDF350",
"X 	c #FEFEFE",
"Y 	c #FCF574",
"Z 	c #FEF105",
"` 	c #FEFDE9",
" .	c #FEFAD0",
"..	c #FDF9CA",
"+.	c #FDF9C6",
"@.	c #FDF68E",
"#.	c #FDF8B7",
"$.	c #FFFFFC",
"%.	c #FDF353",
"&.	c #FDF251",
"*.	c #FEFFFB",
"=.	c #FDF8B2",
"-.	c #FDF358",
";.	c #FDFBD4",
">.	c #FDFBD2",
",.	c #FDFAD2",
"'.	c #FDF799",
").	c #FDF579",
"!.	c #FEF79D",
"~.	c #FEF102",
"{.	c #FEFAC4",
"].	c #FDFCE5",
"^.	c #FEFCDC",
"/.	c #FEFEFC",
"(.	c #FDF352",
"_.	c #FDF11C",
":.	c #FDFACC",
"<.	c #FDF695",
"[.	c #FDF8BC",
"}.	c #FFFFFA",
"|.	c #FDF337",
"1.	c #FEFACC",
"2.	c #FDFDE3",
"3.	c #FEF103",
"4.	c #FEFEEE",
"5.	c #FDF596",
"6.	c #FDF348",
"7.	c #FDF585",
"8.	c #FFFEFE",
"9.	c #FDF590",
"0.	c #FDF69D",
"a.	c #FDFCDD",
"b.	c #FEFDE5",
"c.	c #FDF12F",
"d.	c #FFFEF6",
"e.	c #FDFBDB",
"f.	c #FEFEFD",
"g.	c #FDF57D",
"h.	c #FDF24B",
"i.	c #FEF9C0",
"j.	c #FDFAD6",
"k.	c #FDF21C",
"l.	c #FDF9C1",
"m.	c #FDFCE8",
"n.	c #FDFBE6",
"o.	c #FDFBE7",
"p.	c #FDF57E",
"q.	c #FCF9C4",
"r.	c #FDF471",
"s.	c #FDF583",
"t.	c #FCF8C5",
"u.	c #FDF7A1",
"v.	c #FDF57C",
"w.	c #FEF9BC",
"x.	c #FDF464",
"y.	c #FEF692",
"z.	c #FCF46C",
"A.	c #FDF9AD",
"B.	c #FDF357",
"C.	c #FCF59D",
"D.	c #FCF69D",
"E.	c #FCF69C",
"F.	c #FCF697",
"G.	c #FEF101",
"H.	c #FEF100",
"                                                                                                                                                                                                                                    ",
"                                                                                                                                                                                                                                    ",
"                                                                                                                                                                                                                                    ",
"                                                                                                                                                                                                                                    ",
"                                                                                                                                                                                                                                    ",
"                                                                                                                                                                                                                                    ",
"                                                                                                                                                                                                                                    ",
"                                                                                                                                                                                                                                    ",
"                                                                                                                                                                                                                                    ",
"                                                                                                                                                                                                                                    ",
"                                                                                                                                                                                                                                    ",
"                                                                                                                                                                                                                                    ",
"                                                            .                                                                                                                                                                       ",
"                                                            + @ # # # # # # # # # # # # # # # # # # # # # # # # # # # # # # # # # # # # # # # # # # # # # # # # $ .                                                                 ",
"                                                            % & * * * * * * * * * * * * * * * * * * * * * * * * * * * * * * * * * * * * * * * * * * * * * * * * = -                                                                 ",
"                                                            ; >                                                                                               , ' -                                                                 ",
"                                                            ; >                                                                                                 ' -                                                                 ",
"                                                            ; >                                                                                                 ' -                                                                 ",
"                                                            ; >                                                                                                 ' -                                                                 ",
"                                                            ; >                                                                                                 ' -                                                                 ",
"                                                            ; >                                                                                                 ' -                                                                 ",
"                                                            ; >                                                                                                 ' -                                                                 ",
"                                                            ; >                                                                                                 ' -                                                                 ",
"                                                            ; >                   . ) !         . ~ {           ] ^                                             ' -                                                                 ",
"                                                            ; >                   / ( _       . : < [ } .     . | 1 2   3 4 4 4 4 5 4 6                         ' -                                                                 ",
"                                                            ; >                   7 8 9       . 0 a b c       d e f d   g h i j j j k l                         ' -                                                                 ",
"                                                            ; >                   . m n o     . p q r s       t u v     w u x       . .                         ' -                                                                 ",
"                                                            ; >                   d y z A .   . B C D E       F z G .   w u H                                   ' -                                                                 ",
"                                                            ; >                     I J K .   L M N O P 7   . Q 8 R     w u S .   . . .                         ' -                                                                 ",
"                                                            ; >                     - T U V   % h W y X Y . Z `  .      w b ..+.+.+.@..                         ' -                                                                 ",
"                                                            ; >                       #.$.%.. w U - &.*.=.. -.h s       w b ;.>.>.,.'.                          ' -                                                                 ",
"                                                            ; >                       ).r !.~.f {.  d ].^.d * /.(.      w u H         .                         ' -                                                                 ",
"                                                            ; >                       _.P :.t u <.  . [.}.|.1.2.3.      w u H                                   ' -                                                                 ",
"                                                            ; >                       ~.m 4.5.*.6.  . 7.8.9.4 v .       w u H                                   ' -                                                                 ",
"                                                            ; >                       . 0.X a.b.-     c.d.e.f.g..       w u H                                   ' -                                                                 ",
"                                                            ; >                         h.$.r i..   . . j.r 8 k.        l.$.m.n.o.o.n.p.                        ' -                                                                 ",
"                                                            ; >                         - k q.r..       s.t.u..         v.w.w.w.w.w.w.x.                        ' -                                                                 ",
"                                                            ; >                         . . . .         . . . .         . .         . .                         ' -                                                                 ",
"                                                            ; >                                                                                                 ' -                                                                 ",
"                                                            ; >                                                                                                 ' -                                                                 ",
"                                                            ; >                                                                                                 ' -                                                                 ",
"                                                            ; >                                                                                                 ' -                                                                 ",
"                                                            ; >                                                                                                 ' -                                                                 ",
"                                                            ; >                                                                                                 ' -                                                                 ",
"                                                            ; >                                                                                                 ' -                                                                 ",
"                                                            ; >                                                                                                 ' -                                                                 ",
"                                                            ; >                                                                                                 ' -                                                                 ",
"                                                            ; >                                                                                                 ' -                                                                 ",
"                                                            ; >                                                                                                 ' -                                                                 ",
"                                                            ; >                                                                                                 ' -                                                                 ",
"                                                            ; >                                                                                                 ' -                                                                 ",
"                                                            ; >                                                                                                 ' -                                                                 ",
"                                                            ; >                                                                                                 ' -                                                                 ",
"                                                            y.>                                                                                                 ' -                                                                 ",
"                                                            ; z.o o o o o o o o : : : : : o o o o o o o o o o o o o o : : : : : o o o o o o o o o o o o o o : o A.-                                                                 ",
"                                                            B.C.0.0.0.0.0.0.0.D.D.D.D.D.D.D.D.0.0.0.0.0.0.0.0.0.0.0.D.D.D.D.D.D.D.D.0.0.0.0.0.0.0.0.0.0.0.D.D.E.F.d                                                                 ",
"                                                            . G.G.G.G.G.G.G.H.H.            H.H.G.G.G.G.G.G.G.G.G.H.H.            H.H.G.G.G.G.G.G.G.G.G.H.H.      . .                                                               ",
"                                                                                                                                                                                                                                    ",
"                                                                                                                                                                                                                                    ",
"                                                                                                                                                                                                                                    ",
"                                                                                                                                                                                                                                    ",
"                                                                                                                                                                                                                                    ",
"                                                                                                                                                                                                                                    ",
"                                                                                                                                                                                                                                    "};
