/* XPM */
static char * SO_xpm[] = {
"114 64 168 2",
"  	c #3F47CC",
". 	c #3F47CD",
"+ 	c #3F48CC",
"@ 	c #A5A7DB",
"# 	c #C6C7E8",
"$ 	c #C5C8E8",
"% 	c #C6C8E9",
"& 	c #8286D6",
"* 	c #B3B5D9",
"= 	c #4047CA",
"- 	c #3F48CA",
"; 	c #8488D2",
"> 	c #A0A2DC",
", 	c #8488D3",
"' 	c #B3B5DA",
") 	c #3F47CB",
"! 	c #6F76D0",
"~ 	c #9EA2DE",
"{ 	c #999BDB",
"] 	c #6568CE",
"^ 	c #414ACA",
"/ 	c #8286D4",
"( 	c #A2A5DF",
"_ 	c #9EA0DE",
": 	c #797BD0",
"< 	c #3F48CB",
"[ 	c #5059CD",
"} 	c #D5D9EE",
"| 	c #FDFEFE",
"1 	c #FEFEFD",
"2 	c #FCFDFD",
"3 	c #C1C0E3",
"4 	c #A2A7DE",
"5 	c #F0F3F8",
"6 	c #FEFEFE",
"7 	c #FEFFFE",
"8 	c #EAE9F4",
"9 	c #8D8CD5",
"0 	c #C1C8E9",
"a 	c #B8B7E1",
"b 	c #5E61CE",
"c 	c #686ED0",
"d 	c #B0B5E1",
"e 	c #D5D4EB",
"f 	c #ADB4E2",
"g 	c #E8E7F3",
"h 	c #989AD8",
"i 	c #676BD1",
"j 	c #7379D2",
"k 	c #ACB2E0",
"l 	c #F6F8FB",
"m 	c #FBFAFC",
"n 	c #8685D3",
"o 	c #E8EDF6",
"p 	c #EEECF5",
"q 	c #4047CC",
"r 	c #646FD1",
"s 	c #F9FBFD",
"t 	c #EBE9F4",
"u 	c #5559CC",
"v 	c #8790D8",
"w 	c #FCFEFE",
"x 	c #E2DFF0",
"y 	c #E6EBF5",
"z 	c #F7F6FA",
"A 	c #5B5DCD",
"B 	c #B2B9E4",
"C 	c #FFFEFE",
"D 	c #A4A1DB",
"E 	c #DBE0F1",
"F 	c #FEFDFE",
"G 	c #6967CE",
"H 	c #B6BDE4",
"I 	c #E7E5F3",
"J 	c #8383D4",
"K 	c #D4D9EE",
"L 	c #6260CD",
"M 	c #B9C0E5",
"N 	c #FFFFFE",
"O 	c #9895D8",
"P 	c #444ECC",
"Q 	c #C9CEEA",
"R 	c #DCDCEE",
"S 	c #8889D3",
"T 	c #E3E8F5",
"U 	c #FBF9FD",
"V 	c #4046CA",
"W 	c #A9B1E0",
"X 	c #A7A5DD",
"Y 	c #858BD6",
"Z 	c #D6DAED",
"` 	c #FDFEFD",
" .	c #BDBAE2",
"..	c #E6E9F6",
"+.	c #FAF8FC",
"@.	c #3F46CA",
"#.	c #A8B0E0",
"$.	c #A6A4DD",
"%.	c #8288D5",
"&.	c #EFF2F8",
"*.	c #8C8AD5",
"=.	c #5454CA",
"-.	c #B8BFE6",
";.	c #9290D7",
">.	c #98A2DC",
",.	c #BCB9E4",
"'.	c #3E48CC",
").	c #C5CBE9",
"!.	c #908DD6",
"~.	c #DADEF0",
"{.	c #FDFCFD",
"].	c #5E5ECC",
"^.	c #959DDA",
"/.	c #B5B3E1",
"(.	c #8E97DA",
"_.	c #D7D5EC",
":.	c #7F89D5",
"<.	c #DBD8ED",
"[.	c #707CD4",
"}.	c #E5E5F3",
"|.	c #999ADA",
"1.	c #484EC9",
"2.	c #3F47CA",
"3.	c #727AD3",
"4.	c #E5E9F4",
"5.	c #7573D1",
"6.	c #DCE1F2",
"7.	c #CAC8E7",
"8.	c #666ACE",
"9.	c #3F47C9",
"0.	c #464EC9",
"a.	c #9AA0DD",
"b.	c #F2F4F8",
"c.	c #F9F8FB",
"d.	c #7C7BD1",
"e.	c #5560CF",
"f.	c #E8EBF5",
"g.	c #FCFCFF",
"h.	c #F4F5FB",
"i.	c #F9F9FA",
"j.	c #A4A3DB",
"k.	c #5B63CF",
"l.	c #D9DCEF",
"m.	c #F8F8FE",
"n.	c #FBFDFE",
"o.	c #EFEEF6",
"p.	c #8B8AD5",
"q.	c #424ACB",
"r.	c #8C92D8",
"s.	c #B6B8E3",
"t.	c #BFC0E5",
"u.	c #A7A8DD",
"v.	c #6063CD",
"w.	c #7D82D4",
"x.	c #AFB1E0",
"y.	c #BFC1E6",
"z.	c #B7B8E2",
"A.	c #9595D8",
"B.	c #464CCC",
"C.	c #3F47C8",
"D.	c #3E47C8",
"E.	c #8488D0",
"F.	c #A0A3DC",
"G.	c #A1A3DA",
"H.	c #C2C5E8",
"I.	c #C3C5E8",
"J.	c #C3C4E7",
"K.	c #7E82D5",
"                                                                                                                                                                                                                                    ",
"                                                                                                                                                                                                                                    ",
"                                                                                                                                                                                                                                    ",
"                                                                                                                                                                                                                                    ",
"                                                                                                                                                                                                                                    ",
"                                                                                                                                                                                                                                    ",
"                                                                                                                                                                                                                                    ",
"                                                                                                                                                                                                                                    ",
"                                                                                                                                                                                                                                    ",
"                                                                                                                                                                                                                                    ",
"                                                                                                                                                                                                                                    ",
"                                                                  . + . . . . . . .   . . . . . . . . . . . . . . . . . .   . . . . . . . . . . . . . . . . . .   . .   .                                                           ",
"                                                                  @ # $ $ $ $ $ $ $ $ $ $ $ $ $ $ $ $ $ $ $ $ $ $ $ $ $ $ $ $ $ $ $ $ $ $ $ $ $ $ $ $ $ $ $ $ $ $ $ $ % &                                                           ",
"                                                                  * = = = = = = = = = = = = = = = = = = = = = = = = = = = = = = = = = = = = = = = = = = = = = = = = - ; >                                                           ",
"                                                                  *                                                                                                   , >                                                           ",
"                                                                  '                                                                                                   , >                                                           ",
"                                                                  '                                                                                                   , >                                                           ",
"                                                                  '                                                                                                   , >                                                           ",
"                                                                  '                                                                                                   , >                                                           ",
"                                                                  '                                                                                                   , >                                                           ",
"                                                                  '                                                                                                   , >                                                           ",
"                                                                  '                                                                                                   , >                                                           ",
"                                                                  '                                                                                                   , >                                                           ",
"                                                                  '                                                                                                   , >                                                           ",
"                                                                  '                                                                                                   , >                                                           ",
"                                                                  '                               .                       .                                           , >                                                           ",
"                                                                  '                             ) ! ~ { ]             ^ / ( _ : <                                     , >                                                           ",
"                                                                  '                           [ } | 1 1 2 3       . 4 5 6 7 6 1 8 9 .                                 , >                                                           ",
"                                                                  '                           0 6 a b c d e     . f 1 g h i j k l m n                                 , >                                                           ",
"                                                                  '                           o p q             r s t u         v w x                                 , >                                                           ",
"                                                                  '                           y z A             B C D             E F G                               , >                                                           ",
"                                                                  '                           H 7 I J     .   . K C L             M N O                               , >                                                           ",
"                                                                  '                           P Q 6 1 R S       T U V             W N X                               , >                                                           ",
"                                                                  '                               Y Z ` 6  .+ . ..+.@.            #.7 $.                              , >                                                           ",
"                                                                  '                               .   %.&.6 *.) E C =.            -.6 ;.                              , >                                                           ",
"                                                                  '                                     >.6 ,.'.).6 !.            ~.{.].                              , >                                                           ",
"                                                                  '                         ) ) .     . ^.7 /.. (.7 _.          :.w <..                               , >                                                           ",
"                                                                  '                         [.}.|.1.2.3.4.m 5.. + 6.1 7.8.9.0.a.b.c.d.                                , >                                                           ",
"                                                                  '                         e.f.7 g.h.6 i.j.      k.l.6 1 m.n.6 o.p.                                  , >                                                           ",
"                                                                  '                           q.r.s.t.u.v..       .   w.x.y.z.A.B.                                    , >                                                           ",
"                                                                  '                                                                                                   , >                                                           ",
"                                                                  '                                                                                                   , >                                                           ",
"                                                                  '                                                                                                   , >                                                           ",
"                                                                  '                                                                                                   , >                                                           ",
"                                                                  '                                                                                                   , >                                                           ",
"                                                                  '                                                                                                   , >                                                           ",
"                                                                  '                                                                                                   , >                                                           ",
"                                                                  '                                                                                                   , >                                                           ",
"                                                                  '                                                                                                   , >                                                           ",
"                                                                  '                                                                                                   , >                                                           ",
"                                                                  '                                                                                                   , >                                                           ",
"                                                                  '                                                                                                   , >                                                           ",
"                                                                  '                                                                                                   , >                                                           ",
"                                                                  * C.D.D.D.D.D.D.D.D.D.D.D.D.D.D.D.D.D.D.D.D.D.D.D.D.D.D.D.D.D.D.D.D.D.D.D.D.D.D.D.D.D.D.D.D.D.D.D.D.E.F.                                                          ",
"                                                                  G.H.I.I.I.I.I.I.I.I.I.I.I.I.I.I.I.I.I.I.I.I.I.I.I.I.I.I.I.I.I.I.I.I.I.I.I.I.I.I.I.I.I.I.I.I.I.I.I.J.J.K.                                                          ",
"                                                                                                                                                                      .                                                             ",
"                                                                                                                                                                                                                                    ",
"                                                                                                                                                                                                                                    ",
"                                                                                                                                                                                                                                    ",
"                                                                                                                                                                                                                                    ",
"                                                                                                                                                                                                                                    ",
"                                                                                                                                                                                                                                    ",
"                                                                                                                                                                                                                                    ",
"                                                                                                                                                                                                                                    "};
