/* XPM */
static char * NO_xpm[] = {
"114 64 162 2",
"  	c #FFFFFF",
". 	c #E0E0E0",
"+ 	c #D4D4D4",
"@ 	c #F7F7F7",
"# 	c #AEAEAE",
"$ 	c #E7E7E7",
"% 	c #CACACA",
"& 	c #B5B5B5",
"* 	c #DFDFDF",
"= 	c #FFFFFE",
"- 	c #EDECEA",
"; 	c #D0D0D0",
"> 	c #E7E8E9",
", 	c #D9D8D4",
"' 	c #D7D8D8",
") 	c #F7F6F5",
"! 	c #D2D1D0",
"~ 	c #B1B2B2",
"{ 	c #C8C9CA",
"] 	c #EEF0F0",
"^ 	c #A29D91",
"/ 	c #000001",
"( 	c #303439",
"_ 	c #EBEFEF",
": 	c #7C7967",
"< 	c #777C7F",
"[ 	c #FEFEFD",
"} 	c #C8C6C0",
"| 	c #3D3937",
"1 	c #020203",
"2 	c #3A3A3B",
"3 	c #3F3F3E",
"4 	c #040203",
"5 	c #0F1114",
"6 	c #ABB1B3",
"7 	c #FBFDFC",
"8 	c #A19B8F",
"9 	c #2E3234",
"0 	c #1B140E",
"a 	c #949C9F",
"b 	c #FEFFFE",
"c 	c #CDCAC4",
"d 	c #020101",
"e 	c #7A7F81",
"f 	c #E7E9EA",
"g 	c #FFFEFE",
"h 	c #8B8983",
"i 	c #010101",
"j 	c #AFB6B8",
"k 	c #A19B8E",
"l 	c #454F57",
"m 	c #A3A098",
"n 	c #020409",
"o 	c #E0E4E6",
"p 	c #FAF9F6",
"q 	c #4A463E",
"r 	c #545B60",
"s 	c #F5F8F7",
"t 	c #FAF9F7",
"u 	c #676259",
"v 	c #262C32",
"w 	c #F3F6F7",
"x 	c #3F474E",
"y 	c #F0EEEA",
"z 	c #2F2A25",
"A 	c #7B8286",
"B 	c #FDFEFE",
"C 	c #D7D5D0",
"D 	c #B7BCBF",
"E 	c #BEBBB5",
"F 	c #CDD1D4",
"G 	c #FEFFFF",
"H 	c #3E474E",
"I 	c #B4B1AA",
"J 	c #010102",
"K 	c #D1D5D7",
"L 	c #B9B5B0",
"M 	c #D9DFE0",
"N 	c #DEDBD6",
"O 	c #B1B8BA",
"P 	c #FEFEFF",
"Q 	c #F7F6F3",
"R 	c #4D4842",
"S 	c #62696D",
"T 	c #FAFCFC",
"U 	c #A7A59A",
"V 	c #000101",
"W 	c #E7E9EB",
"X 	c #E7E4E1",
"Y 	c #A4ACAE",
"Z 	c #C6C3BC",
"` 	c #C0C5C6",
" .	c #FFFEFF",
"..	c #A8A49C",
"+.	c #000002",
"@.	c #E5E8E9",
"#.	c #E5E3E0",
"$.	c #000000",
"%.	c #AAB1B3",
"&.	c #FCFBFA",
"*.	c #6A655D",
"=.	c #464C51",
"-.	c #F6F8F9",
";.	c #7D7968",
">.	c #B9B5AF",
",.	c #010001",
"'.	c #D6DBDD",
").	c #D5D3CD",
"!.	c #C0C5C7",
"~.	c #D6D4CE",
"{.	c #B3B8BB",
"].	c #7E7B6A",
"^.	c #D6D3CD",
"/.	c #B2B7B9",
"(.	c #AAA7A0",
"_.	c #010003",
":.	c #E0E5E7",
"<.	c #858077",
"[.	c #373C40",
"}.	c #66645B",
"|.	c #F9F8F5",
"1.	c #474137",
"2.	c #464C50",
"3.	c #F2F4F5",
"4.	c #EBEAE5",
"5.	c #322F2A",
"6.	c #70787B",
"7.	c #FDFFFE",
"8.	c #E5E3DD",
"9.	c #0B0705",
"0.	c #CAC8C2",
"a.	c #010000",
"b.	c #616668",
"c.	c #CFD0D1",
"d.	c #E7E8E8",
"e.	c #E7E6E6",
"f.	c #C7C6C4",
"g.	c #4C4945",
"h.	c #313539",
"i.	c #E1E5E6",
"j.	c #A09B8E",
"k.	c #3E474F",
"l.	c #83888B",
"m.	c #CECCC8",
"n.	c #56544F",
"o.	c #797D7E",
"p.	c #E3E6E6",
"q.	c #F2F2F0",
"r.	c #EBECEC",
"s.	c #FFFEFD",
"t.	c #F2F2F1",
"u.	c #F8F9F9",
"v.	c #FDFDFC",
"w.	c #E7E7E6",
"x.	c #D8D8D8",
"y.	c #D9DADA",
"z.	c #FEFEFE",
"A.	c #E6E6E6",
"B.	c #C9C9C9",
"C.	c #EBEBEB",
"D.	c #E4E4E4",
"E.	c #FAFAFA",
"                                                                                                                                                                                                                                    ",
"                                                                                                                                                                                                                                    ",
"                                                                                                                                                                                                                                    ",
"                                                                                                                                                                                                                                    ",
"                                                                                                                                                                                                                                    ",
"                                                                                                                                                                                                                                    ",
"                                                                                                                                                                                                                                    ",
"                                                                                                                                                                                                                                    ",
"                                                                                                                                                                                                                                    ",
"                                                                                                                                                                                                                                    ",
"                                                                                                                                                                                                                                    ",
"                                                                                                                                                                                                                                    ",
"                                                                                                                                                                                                                                    ",
"                                                                                                                                                                                                                                    ",
"                                                                                                                                                                                                                                    ",
"                                                                                                                                                                                                                                    ",
"                                                                                                                                                                                                                                    ",
"                                                            . + + + + + + + + + + + + + + + + + + + + + + + + + + + + + + + + + + + + + + + + + + + + + + + + + + + + + @                                                           ",
"                                                            # $ $ $ $ $ $ $ $ $ $ $ $ $ $ $ $ $ $ $ $ $ $ $ $ $ $ $ $ $ $ $ $ $ $ $ $ $ $ $ $ $ $ $ $ $ $ $ $ $ $ $ $ % $                                                           ",
"                                                            &                                                                                                         * $                                                           ",
"                                                            &                                                                                                         * $                                                           ",
"                                                            &                                                                                                         * $                                                           ",
"                                                            &                                                                                                         * $                                                           ",
"                                                            &                                                                                                         * $                                                           ",
"                                                            &                                                                                                         * $                                                           ",
"                                                            &                                           = =                                                           * $                                                           ",
"                                                            &                         - ; >           , ' =         ) ! & ~ { ]                                       * $                                                           ",
"                                                            &                       = ^ / ( _ =       : <       [ } | 1 2 3 4 5 6 7 =                                 * $                                                           ",
"                                                            &                         8 9 0 a b       : <     b c d e f b g - h i j b                                 * $                                                           ",
"                                                            &                         k l m n o       : <     p q r s =     = t u v w                                 * $                                                           ",
"                                                            &                         k x y z A B     : <     C i D =         = E i F G                               * $                                                           ",
"                                                            &                         k H = I J K = G : < = = L J M =         G N / O P                               * $                                                           ",
"                                                            &                         k H   Q R S T = : < = b U V W           = X / Y =                               * $                                                           ",
"                                                            &                         k H   b Z J `  .: <   b ..+.@.          = #.$.%.b                               * $                                                           ",
"                                                            &                         k H   = &.*.=.-.;.< =   >.,.'.=         G ).,.!.                                * $                                                           ",
"                                                            &                         k H     = ~.i {.].<     ^.i /.b         b (._.:.                                * $                                                           ",
"                                                            &                         k H       [ <.[.}.<     |.1.2.3.        4.5.6.7.                                * $                                                           ",
"                                                            &                         k H         8.9.,.< =   b 0.a.b.c.d.e.f.g.h.i.b                                 * $                                                           ",
"                                                            &                         j.k.=       b (.$.l.b     = m.n.i / $.$.o.p.                                    * $                                                           ",
"                                                            &                         q.r.G       b s.t.u.        = v.w.x.y.] z.b                                     * $                                                           ",
"                                                            &                                                                                                         * $                                                           ",
"                                                            &                                                                                                         * $                                                           ",
"                                                            &                                                                                                         * $                                                           ",
"                                                            &                                                                                                         * $                                                           ",
"                                                            &                                                                                                         * $                                                           ",
"                                                            &                                                                                                         * $                                                           ",
"                                                            &                                                                                                         * $                                                           ",
"                                                            &                                                                                                         * $                                                           ",
"                                                            &                                                                                                         * $                                                           ",
"                                                            &                                                                                                         * $                                                           ",
"                                                            # A.A.A.A.A.A.A.A.A.A.A.A.A.A.A.A.A.A.A.A.A.A.A.A.A.A.A.A.A.A.A.A.A.A.A.A.A.A.A.A.A.A.A.A.A.A.A.A.A.A.A.A.B.$                                                           ",
"                                                            C.D.D.D.D.D.D.D.D.D.D.D.D.D.D.D.D.D.D.D.D.D.D.D.D.D.D.D.D.D.D.D.D.D.D.D.D.D.D.D.D.D.D.D.D.D.D.D.D.D.D.D.D.D.E.                                                          ",
"                                                                                                                                                                                                                                    ",
"                                                                                                                                                                                                                                    ",
"                                                                                                                                                                                                                                    ",
"                                                                                                                                                                                                                                    ",
"                                                                                                                                                                                                                                    ",
"                                                                                                                                                                                                                                    ",
"                                                                                                                                                                                                                                    ",
"                                                                                                                                                                                                                                    ",
"                                                                                                                                                                                                                                    ",
"                                                                                                                                                                                                                                    ",
"                                                                                                                                                                                                                                    ",
"                                                                                                                                                                                                                                    "};
